# xmcd
#
# Track frame offsets:
#	150
#	21712
#	43877
#	65142
#	87007
#	107625
#	125027
#	148285
#	169445
#
# Disc length: 2514 seconds
#
# Revision: 15
# Processed by: cddbd v1.5.2PL0 Copyright (c) Steve Scherf et al.
# Submitted via: EasyCDDAExtractor 15.3.0.1
#
DISCID=9009d009
DTITLE=Marc Anthony - Libre
DYEAR=2001
DGENRE=Latin
TTITLE0=Celos
TTITLE1=Este Loco Que Te Mira
TTITLE2=Viviendo
TTITLE3=Hasta Que Vuelvas Conmigo
TTITLE4=Barco A La Deriva
TTITLE5=De Que Depende
TTITLE6=Yo Te Quiero
TTITLE7=Amor Aventurero
TTITLE8=Caminare
EXTD=
EXTT0=
EXTT1=
EXTT2=
EXTT3=
EXTT4=
EXTT5=
EXTT6=
EXTT7=
EXTT8=
PLAYORDER=
